<svg width="67" height="133" fill="none" xmlns="http://www.w3.org/2000/svg"><path d="M38.73 3.778l20.068 33.708 6.338-3.778L45.062 0l-6.331 3.778zm-11.928 7.09L46.949 44.64l6.326-3.778L33.13 7.091l-6.327 3.778zm-12.011 7.19l12.002 19.914L6.522 26.606l-3.594 6.447 20.085 11.255H0v7.378h22.26L2.57 62.084l3.433 6.53 20.49-10.823-12.507 19.532 6.2 3.985L41.43 48l-20.333-33.76-6.305 3.817zM25.57 85l20.336 33.754 6.304-3.817-12.006-19.915 20.27 11.362 3.596-6.442L43.99 88.685H67v-7.377H44.74l19.688-10.396L61 64.382 40.506 75.207l12.508-19.54-6.199-3.981L25.572 85zM13.78 92.105l20.093 33.797 6.327-3.777-20.095-33.8-6.325 3.78zM1.836 99.201L21.938 133l6.331-3.784L8.176 95.423l-6.34 3.778z" fill="url(#paint0_linear)"/><defs><linearGradient id="paint0_linear" x1="33.5" y1="0" x2="33.5" y2="133" gradientUnits="userSpaceOnUse"><stop offset=".161" stop-color="#E9FC1C"/><stop offset=".917" stop-color="#3EBF9C"/></linearGradient></defs></svg>