<svg viewBox="0 0 73 19" fill="white" xmlns="http://www.w3.org/2000/svg"><path d="M3.692 18.628V3.488c.71-.304 1.829-.474 2.878-.474.678 0 1.321.068 1.863.203L9.144.135C8.602.034 7.891 0 7.078 0 4.37 0 1.761.542 0 1.287v17.34h3.692zM19.305 19c2.574 0 5.25-.576 6.57-1.287V6.198c0-4.505-2.642-6.198-7.01-6.198-2.439 0-4.911.643-6.368 1.287l.949 2.54c1.219-.576 3.319-1.118 5.046-1.118 2.337 0 3.86.813 3.86 3.116v1.152l-.27.015-.542.035c-5.227.355-10.126 1.419-10.126 6.25 0 3.59 2.641 5.723 7.89 5.723zm-.102-2.676c-2.81 0-4.301-1.185-4.301-3.115 0-3.053 3.283-3.508 6.768-3.72l.683-.04v6.401c-.576.271-1.964.474-3.15.474zm15.038 2.303V.373h-3.726v18.255h3.726zM46.23 19c5.182 0 8.027-4.098 8.027-9.517S51.412 0 46.23 0c-5.182 0-8.027 4.064-8.027 9.483 0 5.419 2.845 9.517 8.027 9.517zm0-3.014c-2.879 0-4.301-2.608-4.301-6.537 0-3.928 1.422-6.502 4.301-6.502 2.879 0 4.301 2.574 4.301 6.502 0 3.929-1.422 6.537-4.301 6.537zm15.58 2.642V3.522c.744-.305 1.997-.542 3.352-.542 2.54 0 3.827 1.321 3.827 3.455v12.193h3.726V6.096c0-3.86-2.473-6.096-7.587-6.096-2.845 0-5.181.542-7.01 1.287v17.34h3.691z"/></svg>