<svg aria-hidden="true" style="position: absolute; width: 0; height: 0; overflow: hidden;" version="1.1" xmlns="http://www.w3.org/2000/svg" xmlns:xlink="http://www.w3.org/1999/xlink">
<defs>
<symbol id="icon-Icon" viewBox="0 0 32 32">
<path fill="#fff" style="fill: var(--color1, #fff)" d="M16.017 6.792c-3.421 0.006-6.208 2.793-6.214 6.214 0.006 3.419 2.793 6.207 6.214 6.213 3.42-0.006 6.207-2.793 6.213-6.213-0.006-3.42-2.793-6.207-6.214-6.213h0.001zM16.017 20.411c-4.083 0-7.404-3.322-7.405-7.404 0.001-4.083 3.322-7.406 7.405-7.406s7.404 3.322 7.406 7.406c-0.001 4.083-3.324 7.404-7.406 7.404zM16.017 21.221c0.094 0 0.188 0.023 0.271 0.066l2.257 1.156 1.378-2.13c0.104-0.161 0.279-0.262 0.47-0.272l2.533-0.128 0.126-2.532c0.010-0.191 0.111-0.367 0.271-0.471l2.131-1.378-1.157-2.257c-0.087-0.171-0.087-0.374 0.001-0.543l1.156-2.258-2.13-1.377c-0.161-0.104-0.262-0.279-0.271-0.471l-0.127-2.533-2.533-0.128c-0.191-0.010-0.367-0.111-0.47-0.272l-1.378-2.13-2.258 1.157c-0.083 0.043-0.177 0.065-0.271 0.065s-0.188-0.022-0.272-0.065l-2.258-1.157-1.377 2.13c-0.104 0.161-0.279 0.262-0.47 0.272l-2.533 0.127-0.126 2.534c-0.011 0.191-0.112 0.367-0.273 0.47l-2.13 1.377 1.157 2.258c0.087 0.17 0.087 0.373 0 0.543l-1.157 2.257 2.131 1.378c0.161 0.104 0.262 0.279 0.273 0.47l0.126 2.533 2.533 0.128c0.191 0.010 0.367 0.111 0.47 0.272l1.377 2.13 2.258-1.157c0.082-0.043 0.176-0.066 0.271-0.066zM10.038 25.499c0.162 0.018 0.306 0.102 0.406 0.234l1.679 2.241 2.865-4.962-1.435 0.736c-0.084 0.043-0.178 0.066-0.271 0.066-0.203 0-0.391-0.102-0.501-0.273l-1.503-2.326-1.691-0.084-2.331 4.035 2.783 0.332zM19.911 27.977l1.677-2.243c0.099-0.132 0.244-0.216 0.407-0.234l2.781-0.332-2.328-4.036-1.692 0.085-1.503 2.326c-0.11 0.17-0.297 0.272-0.5 0.272-0.094 0-0.188-0.022-0.271-0.066l-1.436-0.735 2.865 4.963zM12.185 29.652c-0.187 0-0.365-0.089-0.477-0.239l-2.066-2.761-3.424-0.409c-0.199-0.024-0.371-0.145-0.462-0.324-0.090-0.18-0.084-0.391 0.017-0.565l2.508-4.343c-0.193-0.093-0.326-0.282-0.337-0.497l-0.137-2.768-2.327-1.504c-0.258-0.167-0.347-0.499-0.207-0.772l1.263-2.464-1.264-2.465c-0.14-0.273-0.051-0.604 0.208-0.771l2.327-1.505 0.137-2.766c0.017-0.307 0.26-0.55 0.566-0.565l2.767-0.14 1.504-2.325c0.11-0.171 0.297-0.273 0.5-0.273 0.094 0 0.188 0.022 0.271 0.066l2.465 1.263 2.465-1.263c0.083-0.043 0.176-0.066 0.27-0.066 0.203 0 0.391 0.102 0.501 0.273l1.503 2.325 2.768 0.14c0.305 0.015 0.548 0.258 0.565 0.564l0.138 2.767 2.326 1.505c0.258 0.167 0.347 0.498 0.207 0.771l-1.263 2.465 1.263 2.464c0.14 0.273 0.051 0.604-0.206 0.772l-2.327 1.504-0.138 2.767c-0.012 0.217-0.145 0.405-0.337 0.498l2.508 4.343c0.1 0.174 0.105 0.385 0.016 0.565s-0.262 0.3-0.462 0.324l-3.426 0.409-2.064 2.761c-0.115 0.152-0.288 0.239-0.477 0.239-0.236-0.012-0.415-0.123-0.517-0.298l-3.315-5.743-3.315 5.743c-0.101 0.175-0.28 0.286-0.481 0.297l-0.035 0.001z"></path>
</symbol>
<symbol id="icon-Frame-335" viewBox="0 0 32 32">
<path fill="#fff" style="fill: var(--color1, #fff)" d="M16.043 12.359c-1.246 0-2.26 1.014-2.26 2.26s1.014 2.26 2.26 2.26 2.26-1.014 2.26-2.26c0-1.246-1.014-2.26-2.26-2.26zM16.042 18.041c-1.886 0-3.421-1.535-3.421-3.421s1.535-3.421 3.421-3.421c1.886 0 3.421 1.535 3.421 3.421s-1.535 3.421-3.421 3.421z"></path>
<path fill="#fff" style="fill: var(--color1, #fff)" d="M19.752 23.307c0.257 0 0.467 0.209 0.467 0.467v4.291h1.536v-4.311c0-1.875-1.524-3.401-3.397-3.401l-4.662-0.016c-1.877 0.001-3.404 1.528-3.404 3.405v4.323h1.536v-4.291c0-0.258 0.209-0.467 0.467-0.467s0.467 0.209 0.467 0.467v4.291h6.521v-4.291c0-0.258 0.21-0.467 0.467-0.467zM10.258 29.227c-0.62 0-1.125-0.505-1.125-1.125v-4.358c0-2.517 2.047-4.565 4.564-4.565l4.663 0.015c2.512 0.001 4.555 2.048 4.556 4.561v4.358c0 0.624-0.494 1.113-1.125 1.113h-11.533z"></path>
<path fill="#fff" style="fill: var(--color1, #fff)" d="M10.002 3.382c-1.246 0-2.26 1.014-2.26 2.261s1.014 2.26 2.26 2.26c1.246 0 2.26-1.014 2.26-2.26s-1.014-2.261-2.26-2.261zM10.003 9.064c-1.886 0-3.421-1.535-3.421-3.421s1.534-3.421 3.421-3.421c1.886 0 3.421 1.535 3.421 3.421s-1.535 3.421-3.421 3.421z"></path>
<path fill="#fff" style="fill: var(--color1, #fff)" d="M4.236 20.145c-0.62 0-1.125-0.505-1.125-1.125v-4.358c0-2.517 2.047-4.565 4.564-4.565l4.667 0.001c0.335 0 0.657 0.035 0.983 0.108 0.313 0.069 0.51 0.38 0.44 0.693-0.058 0.263-0.296 0.454-0.565 0.454-0.043 0-0.086-0.004-0.127-0.014-0.243-0.053-0.483-0.080-0.731-0.080l-4.668-0.001c-1.877 0-3.404 1.527-3.404 3.404v4.323h1.536v-4.291c0-0.258 0.209-0.467 0.467-0.467s0.467 0.209 0.467 0.467v4.291h2.381c0.32 0 0.58 0.26 0.58 0.58s-0.26 0.581-0.58 0.581h-4.887z"></path>
<path fill="#fff" style="fill: var(--color1, #fff)" d="M22.064 3.382c-1.246 0-2.26 1.014-2.26 2.261s1.014 2.26 2.26 2.26c1.246 0 2.26-1.014 2.26-2.26s-1.014-2.261-2.26-2.261zM22.065 9.064c-1.887 0-3.421-1.535-3.421-3.421s1.534-3.421 3.421-3.421c1.886 0 3.421 1.535 3.421 3.421s-1.535 3.421-3.421 3.421z"></path>
<path fill="#fff" style="fill: var(--color1, #fff)" d="M22.928 20.145c-0.32 0-0.58-0.26-0.58-0.581s0.26-0.58 0.58-0.58h2.381v-4.291c0-0.258 0.209-0.467 0.467-0.467s0.467 0.209 0.467 0.467v4.291h1.536v-4.322c0-0.907-0.355-1.762-0.999-2.405s-1.498-0.999-2.405-0.999l-4.664 0.002c-0.249 0-0.477 0.025-0.72 0.079-0.042 0.009-0.085 0.014-0.127 0.014-0.269 0-0.507-0.191-0.566-0.454-0.069-0.313 0.128-0.623 0.44-0.693 0.323-0.072 0.641-0.107 0.972-0.107l4.664-0.002c1.217 0 2.363 0.475 3.226 1.338s1.338 2.009 1.338 3.226v4.359c0 0.62-0.504 1.125-1.125 1.125h-4.887z"></path>
</symbol>
<symbol id="icon-Frame-336" viewBox="0 0 32 32">
<path fill="#fff" style="fill: var(--color1, #fff)" d="M28.778 28.855c-0.196 0-0.393-0.077-0.542-0.231l-3.286-3.992c-0.3-0.308-0.3-0.808 0-1.115s0.784-0.308 1.084 0l3.286 3.992c0.3 0.308 0.3 0.807 0 1.115-0.149 0.154-0.346 0.231-0.542 0.231z"></path>
<path fill="#fff" style="fill: var(--color1, #fff)" d="M16.401 4.172c-7.323 0-12.638 5.188-12.638 12.335 0 6 5.669 10.881 12.638 10.881 5.834 0 11.148-5.186 11.148-10.881 0-6.801-5.001-12.335-11.148-12.335zM16.402 28.894c-7.819 0-14.18-5.557-14.18-12.387 0-8.020 5.964-13.841 14.18-13.841 6.997 0 12.69 6.209 12.69 13.841 0 6.483-6.049 12.387-12.69 12.387z"></path>
<path fill="#fff" style="fill: var(--color1, #fff)" d="M15.786 10.356c-1.457 0-2.642 1.137-2.642 2.535s1.185 2.534 2.642 2.534c1.456 0 2.641-1.136 2.641-2.534s-1.185-2.535-2.641-2.535zM15.786 16.895c-2.301 0-4.173-1.796-4.173-4.004s1.873-4.005 4.173-4.005c2.301 0 4.173 1.796 4.173 4.005s-1.872 4.004-4.173 4.004zM5.99 19.755c-0.423 0-0.766-0.329-0.766-0.735 0-1.983 1.681-3.596 3.748-3.596 1.438 0 2.727 0.77 3.363 2.009 0.187 0.364 0.031 0.805-0.349 0.984s-0.839 0.029-1.025-0.335c-0.376-0.733-1.139-1.188-1.989-1.188-1.222 0-2.216 0.954-2.216 2.126 0 0.406-0.343 0.735-0.766 0.735z"></path>
<path fill="#fff" style="fill: var(--color1, #fff)" d="M21.755 22.953c-0.423 0-0.766-0.351-0.766-0.784 0-2.934-2.33-5.321-5.195-5.321s-5.195 2.387-5.195 5.321c0 0.433-0.343 0.784-0.766 0.784s-0.766-0.351-0.766-0.784c0-3.799 3.018-6.889 6.727-6.889s6.727 3.090 6.727 6.889c0 0.433-0.343 0.784-0.766 0.784z"></path>
<path fill="#fff" style="fill: var(--color1, #fff)" d="M22.522 12.903c-0.537 0-0.973 0.435-0.973 0.971s0.436 0.972 0.973 0.972c0.537 0 0.973-0.436 0.973-0.972s-0.436-0.971-0.973-0.971zM22.521 16.431c-1.413 0-2.563-1.148-2.563-2.558s1.149-2.557 2.563-2.557c1.413 0 2.563 1.147 2.563 2.557s-1.149 2.558-2.563 2.558z"></path>
<path fill="#fff" style="fill: var(--color1, #fff)" d="M8.976 13.568c-0.517 0-0.938 0.407-0.938 0.908s0.421 0.909 0.938 0.909c0.517 0 0.939-0.408 0.939-0.909s-0.422-0.908-0.939-0.908zM8.976 16.868c-1.363 0-2.471-1.074-2.471-2.393s1.108-2.392 2.471-2.392c1.363 0 2.472 1.073 2.472 2.392s-1.109 2.393-2.472 2.393zM25.598 19.756c-0.423 0-0.767-0.332-0.767-0.742 0-1.183-0.995-2.147-2.217-2.147-0.851 0-1.614 0.46-1.991 1.2-0.186 0.368-0.646 0.52-1.026 0.338s-0.537-0.626-0.349-0.994c0.636-1.251 1.926-2.029 3.366-2.029 2.068 0 3.75 1.629 3.75 3.631 0 0.41-0.343 0.742-0.766 0.742z"></path>
</symbol>
</defs>
</svg>
