<svg aria-hidden="true" style="position: absolute; width: 0; height: 0; overflow: hidden;" version="1.1" xmlns="http://www.w3.org/2000/svg" xmlns:xlink="http://www.w3.org/1999/xlink">
<defs>
<symbol id="icon-solidatus-1" viewBox="0 0 32 32">
<path fill="#3d7bc8" style="fill: var(--color1, #3d7bc8)" d="M16.068 2.091c2.737 0 5.413 0.812 7.689 2.332s4.050 3.682 5.097 6.211c1.047 2.529 1.322 5.311 0.787 7.996s-1.852 5.15-3.787 7.086c-1.935 1.935-4.401 3.253-7.086 3.787s-5.467 0.26-7.996-0.788c-2.529-1.047-4.69-2.821-6.211-5.097s-2.332-4.951-2.332-7.689c0.002-3.67 1.46-7.189 4.055-9.784s6.114-4.054 9.784-4.055zM16.068 5.045c-2.881 0.015-5.639 1.166-7.677 3.203s-3.188 4.796-3.203 7.677c0.004 0.846 0.107 1.689 0.307 2.511h12.226v-1.839l4.188 3.292-4.188 3.292v-1.839h-11.093c1.293 2.28 3.367 4.016 5.84 4.887s5.176 0.82 7.614-0.145c2.437-0.965 4.443-2.779 5.649-5.107s1.529-5.013 0.91-7.56h-11.328v1.839l-2.086-1.645-2.099-1.643 2.099-1.645 2.093-1.647v1.839h10.182c-0.953-1.66-2.327-3.040-3.983-4.001s-3.536-1.467-5.451-1.469z"></path>
</symbol>
<symbol id="icon-everbridge-nl-logo-vector-1" viewBox="0 0 46 32">
<path fill="#f17325" style="fill: var(--color2, #f17325)" d="M46.188 31.461v-1.964c-15.683-1.711-27.885-14.289-28.013-29.529h-1.98c0.16 16.317 13.224 29.782 29.993 31.493z"></path>
<path fill="#f17325" style="fill: var(--color2, #f17325)" d="M18.207-0.032h-1.98c-0.064 4.531-1.98 8.808-5.398 12.103-2.971 2.82-6.74 4.594-10.86 5.228v1.964c4.632-0.57 8.88-2.598 12.202-5.735 3.801-3.675 5.973-8.459 6.037-13.56z"></path>
<path fill="#cf202a" style="fill: var(--color3, #cf202a)" d="M23.733-0.032h-1.98c-0.128 6.368-2.715 12.293-7.506 16.887-3.865 3.707-8.88 6.178-14.278 7.065v2.028c5.909-0.887 11.371-3.517 15.62-7.636 5.207-4.974 8.017-11.469 8.145-18.345z"></path>
<path fill="#cf202a" style="fill: var(--color3, #cf202a)" d="M30.249 17.933c4.376 3.897 9.902 6.432 15.939 7.255v-2.028c-5.526-0.824-10.605-3.137-14.597-6.749-4.887-4.404-7.57-10.202-7.634-16.444h-1.98c0.096 6.812 3.003 13.18 8.273 17.964z"></path>
<path fill="#59595b" style="fill: var(--color4, #59595b)" d="M46.188 18.82v-1.964c-4.12-0.507-7.954-2.281-10.924-5.101-3.29-3.2-5.143-7.382-5.207-11.786h-1.948c0.064 4.974 2.172 9.632 5.909 13.18 3.226 3.2 7.538 5.164 12.17 5.671z"></path>
<path fill="#59595b" style="fill: var(--color4, #59595b)" d="M29.61-0.032h-1.98c-0.064 7.889-3.098 15.24-8.752 20.911-5.079 5.038-11.691 8.174-18.91 8.998v1.964c7.762-0.824 14.853-4.15 20.315-9.568 5.973-5.988 9.263-13.909 9.327-22.305z"></path>
</symbol>
</defs>
</svg>
